<svg width="142" height="41" viewBox="0 0 142 41" fill="none" xmlns="http://www.w3.org/2000/svg">
<path d="M44.5508 39.3095V0.269327H50.0518L57.4099 20.9414H57.5237L64.8216 0.269327H70.3829V39.3095H64.6543V15.5688H64.5405L58.8688 32.3473H56.0046L50.3898 15.5688H50.2793V39.3095H44.5508Z" fill="black"/>
<path d="M80.3176 0.269327H74.589V39.3095H80.3176V0.269327Z" fill="black"/>
<path d="M84.5137 39.3095V0.269327H90.2422V16.9941H97.3159V0.269327H103.044V39.3095H97.3159V21.9274H90.2422V39.3095H84.5137Z" fill="black"/>
<path d="M105.246 20.0695C105.246 8.55628 112.849 0.443722 123.62 0.443722C134.391 0.443722 142 8.55628 142 20.0695C142 31.5827 134.394 39.7489 123.62 39.7489C112.845 39.7489 105.246 31.6363 105.246 20.0695ZM135.328 20.1231C135.328 11.7356 130.459 5.86998 123.62 5.86998C116.78 5.86998 111.915 11.7356 111.915 20.1231C111.915 28.5107 116.787 34.2656 123.62 34.2656C130.453 34.2656 135.328 28.5073 135.328 20.1231Z" fill="black"/>
<path d="M18.394 11.5525C18.3625 11.718 18.3268 11.836 18.3211 11.9569C18.3096 12.2116 18.3211 12.4677 18.3096 12.7224C18.2982 13.0217 18.2725 13.321 18.2553 13.6203C18.2539 13.652 18.2582 13.688 18.2711 13.7167C18.4011 14.0462 18.3268 14.3729 18.2625 14.7024C18.2139 14.9528 18.1796 15.206 18.1439 15.4579C18.1224 15.6104 18.1167 15.7658 18.091 15.9183C18.0867 15.9485 18.0253 15.9687 18.011 15.9773C17.9567 16.3788 17.9052 16.7731 17.8524 17.163C17.6694 17.2422 17.4822 17.3371 17.2836 17.4019C17.2307 17.4192 17.1135 17.3616 17.0864 17.3084C16.9521 17.0378 16.8206 16.763 16.7205 16.4781C16.5176 15.8953 16.309 15.3111 16.1504 14.7139C16.0089 14.1815 15.9189 13.6347 15.8317 13.0908C15.7917 12.8418 15.8317 12.5828 15.8074 12.3296C15.7788 12.0188 15.7131 11.7123 15.6788 11.4029C15.6602 11.2403 15.6702 11.0748 15.6702 10.9108C15.6731 10.5755 15.6788 10.2417 15.6831 9.90638C15.6859 9.6373 15.6659 9.36678 15.6945 9.10057C15.7445 8.64011 15.8088 8.17964 15.8974 7.72494C15.986 7.27742 16.1089 6.8371 16.2275 6.39534C16.2533 6.30037 16.3247 6.21835 16.379 6.12338C16.3876 6.13489 16.4147 6.17087 16.4405 6.20684C16.5291 6.05863 16.6162 5.91186 16.7234 5.73199C16.672 5.5737 16.6062 5.56219 16.4305 5.66004C16.3076 5.72911 16.1989 5.81832 16.0246 5.83127C15.7745 5.84998 15.5344 5.97805 15.2886 6.06007C15.2829 6.06007 15.2758 6.06726 15.2701 6.06726C14.9257 6.04856 14.6327 6.23994 14.3083 6.30757C14.0368 6.36513 13.7824 6.50614 13.5166 6.5968C13.4137 6.63133 13.298 6.62845 13.188 6.64716C12.995 6.67882 12.8021 6.71335 12.6592 6.73925C12.5606 6.81696 12.502 6.89754 12.4277 6.9148C12.2562 6.9551 12.0776 6.96373 11.9032 6.99107C11.8604 6.99826 11.8218 7.02848 11.7803 7.04719C11.6903 7.08604 11.6003 7.15799 11.5103 7.15511C11.1701 7.14792 10.9058 7.34361 10.61 7.45873C10.4956 7.50334 10.3656 7.51197 10.2427 7.53499C10.2256 7.53787 10.1955 7.5206 10.1898 7.52924C9.98404 7.76523 9.66108 7.71055 9.41385 7.84868C9.29239 7.91632 9.14377 7.9379 9.00801 7.98107C8.73935 8.06597 8.47069 8.15374 8.2006 8.2372C7.90907 8.32642 7.61326 8.40124 7.32459 8.49909C7.14739 8.55953 6.98448 8.66601 6.80871 8.72932C6.73011 8.7581 6.63151 8.73364 6.53148 8.73364C6.34284 8.9538 6.36714 9.18547 6.5129 9.42578C6.5572 9.49916 6.60293 9.57831 6.48146 9.63874C6.45574 9.65169 6.44716 9.72796 6.45431 9.77112C6.47574 9.88336 6.52004 9.98984 6.53719 10.1021C6.62579 10.6849 6.71011 11.2676 6.79156 11.8518C6.81729 12.0332 6.79871 12.2245 6.85015 12.3958C7.04022 13.0217 7.04022 13.6592 7.03021 14.3024C7.02735 14.4909 7.0888 14.6794 7.09595 14.8693C7.10166 15.0319 7.05308 15.196 7.06165 15.3571C7.10881 16.3572 6.96733 17.3386 6.77298 18.3142C6.74155 18.4753 6.68724 18.6336 6.63437 18.789C6.56149 19.002 6.4786 19.0236 6.30998 18.8783C6.28568 18.8581 6.27568 18.8221 6.25853 18.7934C6.25138 18.8164 6.24424 18.8408 6.23852 18.8639C6.02845 18.8725 5.81838 18.8811 5.60832 18.8898C5.57402 18.8898 5.52829 18.8826 5.50828 18.8998C5.38681 19.0121 5.2925 18.9272 5.23248 18.8423C5.03384 18.5516 4.81663 18.2667 4.66943 17.9501C4.40649 17.3846 4.16927 16.8047 3.95777 16.2162C3.82487 15.8464 3.75485 15.4535 3.66482 15.0693C3.6491 15.0003 3.67482 14.9226 3.6491 14.8564C3.62623 14.7326 3.61051 14.606 3.5805 14.4851C3.53192 14.2923 3.46618 14.1024 3.42331 13.9081C3.40902 13.8419 3.44189 13.7642 3.48905 13.6894C3.38758 13.4678 3.34043 13.2347 3.37758 12.9742C3.4033 12.79 3.37758 12.5987 3.37472 12.4102C3.37472 12.3857 3.37472 12.3512 3.359 12.3368C3.20324 12.1943 3.26469 12.0274 3.26469 11.8475C3.26469 11.5079 3.20467 11.1655 3.14465 10.8288C3.11178 10.646 3.02175 10.4733 2.97173 10.292C2.95458 10.2273 2.96887 10.1453 2.99317 10.0805C3.04747 9.9438 2.99031 9.87617 2.87599 9.82005C2.80311 9.78407 2.73737 9.73083 2.67878 9.69198C2.63591 9.73947 2.58017 9.84019 2.49729 9.88049C2.41726 9.9179 2.30866 9.89056 2.21148 9.89344C2.18004 9.89344 2.14718 9.89344 2.11859 9.90351C1.77419 10.0287 1.42122 10.0359 1.05824 10.0129C0.801017 9.99704 0.539502 10.0618 0.280846 10.0589C0.186529 10.0589 0.0550569 9.98697 0.00932759 9.90782C-0.0249694 9.84883 0.0436246 9.7222 0.0807797 9.63155C0.122222 9.52938 0.243691 9.45312 0.156519 9.3121C0.142229 9.29051 0.196532 9.21425 0.2294 9.17396C0.382308 8.98977 0.435182 8.74083 0.633819 8.58543C0.762433 8.4847 0.851034 8.33217 0.979647 8.23145C1.39979 7.90193 1.82707 7.58392 2.25721 7.26735C2.38297 7.17382 2.54874 7.12489 2.65306 7.01553C2.73165 6.93207 2.76881 6.78674 2.78024 6.66587C2.79739 6.47305 2.76452 6.27591 2.77738 6.08165C2.80025 5.72767 2.82883 5.37225 2.88313 5.02114C2.90171 4.90027 3.00317 4.79379 3.08034 4.65565C3.22324 4.73335 3.34757 4.80099 3.48476 4.87581C3.56193 4.65709 3.66911 4.44413 3.60337 4.17504C3.56479 4.01532 3.59051 3.83401 3.61909 3.66709C3.66053 3.42679 3.792 3.4124 4.04066 3.61673C4.10211 3.49154 4.16212 3.36779 4.24215 3.19943C4.28359 3.29296 4.34075 3.36347 4.33933 3.43254C4.33504 3.55054 4.37505 3.61241 4.47794 3.65702C4.69087 3.75055 4.73374 3.9779 4.85235 4.14626C4.89094 4.20094 4.95381 4.27145 5.00955 4.27577C5.15531 4.28728 5.22819 4.36642 5.28964 4.48585C5.33108 4.565 5.39253 4.63407 5.45827 4.7276C5.4354 4.80818 5.41539 4.91035 5.57688 4.95208C5.61832 4.96359 5.65119 5.03841 5.67119 5.09021C5.74265 5.27728 5.91985 5.33628 6.09562 5.23267C6.32427 5.09885 6.55148 4.96503 6.78728 4.84415C6.87302 4.79955 6.98163 4.80242 7.07308 4.76645C7.34317 4.65709 7.60755 4.53046 7.88049 4.42974C8.03769 4.37218 8.21203 4.36211 8.37208 4.3103C8.51356 4.26426 8.6436 4.18511 8.78079 4.12899C9.04802 4.01963 9.31239 3.89588 9.5882 3.81674C10.1755 3.64839 10.7714 3.50737 11.3631 3.34908C11.6089 3.28289 11.8489 3.19799 12.0933 3.13036C12.4463 3.03107 12.7978 2.88718 13.1565 2.8656C13.3823 2.85264 13.5566 2.72746 13.7681 2.71451C13.9596 2.70299 14.1497 2.68141 14.3398 2.65551C14.4098 2.64544 14.4727 2.59651 14.5427 2.58788C14.6713 2.57061 14.8013 2.56917 14.93 2.5591C14.9971 2.55334 15.0671 2.5519 15.13 2.5332C15.3215 2.47708 15.5059 2.3965 15.7002 2.35477C15.9303 2.3044 16.1661 2.27706 16.4019 2.2526C16.8877 2.20368 17.3736 2.15907 17.8595 2.11878C18.3554 2.07705 18.8498 2.02525 19.3471 2.00798C19.6644 1.99647 19.9831 2.04539 20.3003 2.05978C20.7504 2.07993 21.202 2.09144 21.6522 2.11734C21.7036 2.12022 21.7936 2.19361 21.7922 2.23246C21.7894 2.32599 21.7665 2.4411 21.7065 2.50298C21.6465 2.56485 21.5321 2.57349 21.4421 2.60658C21.445 2.62385 21.4492 2.64256 21.4521 2.65983C21.5164 2.65695 21.5936 2.62961 21.6436 2.65407C21.7694 2.71738 21.9208 2.77926 21.9923 2.88862C22.0595 2.98935 22.1352 2.99798 22.2224 3.03107C22.2667 3.04834 22.3167 3.08144 22.3353 3.12029C22.3453 3.14044 22.2967 3.19368 22.2681 3.22821C22.2267 3.27857 22.1809 3.32462 22.1138 3.39657C22.301 3.42966 22.4467 3.45557 22.5925 3.48291C22.5996 3.50593 22.6082 3.52751 22.6153 3.55054C22.561 3.60234 22.5139 3.67429 22.4496 3.70307C22.271 3.77933 22.0852 3.83545 21.9023 3.90164C21.8737 3.91171 21.8408 3.92898 21.8222 3.95344C21.6708 4.14051 21.445 4.12612 21.242 4.17216C21.212 4.17936 21.1663 4.16785 21.1534 4.18511C20.9648 4.41966 20.669 4.35635 20.4318 4.4542C20.4032 4.46571 20.3632 4.4542 20.3403 4.46859C20.1074 4.62975 19.833 4.65421 19.5672 4.71321C19.3143 4.76933 19.0656 4.85423 18.8184 4.93337C18.7141 4.96646 18.6169 5.02834 18.5126 5.06144C18.1725 5.16792 17.8323 5.27008 17.4894 5.36649C17.4165 5.38664 17.3365 5.38376 17.2579 5.38664C17.1307 5.39096 17.0607 5.43988 17.0792 5.58234C17.0878 5.64709 17.0735 5.71472 17.075 5.77947C17.0807 5.97661 17.1307 6.14065 17.3493 6.20396C17.6709 6.29893 17.7695 6.59104 17.8381 6.863C17.9438 7.2803 18.0053 7.70911 18.0696 8.13504C18.1424 8.61996 18.1796 9.11064 18.2639 9.59413C18.3225 9.92653 18.2954 10.2575 18.3168 10.5884C18.3268 10.7467 18.3625 10.9036 18.3511 11.0633C18.3468 11.1353 18.3611 11.2115 18.3425 11.2777C18.3082 11.4015 18.2668 11.5166 18.3897 11.5497L18.394 11.5525ZM4.62228 14.9154C4.58083 14.7772 4.54225 14.6549 4.50652 14.5326C4.46365 14.3858 4.35647 14.2189 4.39363 14.0952C4.47366 13.8247 4.40363 13.57 4.39077 13.3109C4.36648 12.862 4.31503 12.4145 4.27359 11.967C4.25787 11.7972 4.23786 11.6259 4.21214 11.4576C4.16927 11.1698 4.12211 10.8834 4.07638 10.5971C4.05638 10.4719 4.06209 10.3352 4.01208 10.2258C3.97206 10.1395 3.88346 10.0848 3.96349 9.97258C3.97635 9.95387 3.91776 9.88192 3.88346 9.81861C3.83345 9.90207 3.80486 9.95099 3.77628 9.99992C3.68054 9.97258 3.59765 9.94811 3.45618 9.90782C3.53049 9.99848 3.56907 10.0445 3.60766 10.092C3.43331 10.2287 3.53763 10.3222 3.66053 10.3999C3.60766 10.6187 3.51477 10.8072 3.64481 11.0374C3.70197 11.1381 3.62338 11.3223 3.72913 11.4518C3.73341 11.4576 3.6834 11.5007 3.66911 11.5324C3.65481 11.5626 3.65053 11.5986 3.65196 11.6331C3.65196 11.6461 3.6834 11.6705 3.69197 11.6677C3.81773 11.6216 3.83916 11.7108 3.83345 11.7929C3.82773 11.8893 3.78772 11.9828 3.772 12.0792C3.75771 12.1699 3.75485 12.2619 3.75485 12.354C3.75485 12.403 3.77485 12.4505 3.782 12.4994C3.81058 12.7095 3.80344 12.9311 3.87346 13.1253C3.94062 13.3138 3.9249 13.5354 4.07924 13.6966C4.09925 13.7167 4.05066 13.7973 4.04494 13.8506C4.02779 13.9944 3.95777 14.2319 4.01493 14.2678C4.20071 14.3887 4.10639 14.5182 4.13211 14.6132C4.21786 14.6995 4.30217 14.7844 4.38791 14.8708L4.36076 14.9039C4.4365 14.9082 4.51367 14.9125 4.62371 14.9183V14.9154H4.62228ZM3.62052 9.86897C3.73198 9.8258 3.82344 9.80566 3.89489 9.75673C3.93062 9.73227 3.95063 9.64737 3.93776 9.60277C3.92776 9.57111 3.84774 9.53945 3.80201 9.54521C3.61623 9.56823 3.63624 9.71644 3.62052 9.86897ZM21.9051 3.6268C22.1209 3.55341 22.1352 3.51168 22.0109 3.28001C21.9323 3.34189 21.8551 3.40232 21.7765 3.4642C21.8294 3.53039 21.868 3.57932 21.9051 3.6268Z" fill="black"/>
<path d="M6.45142 22.1476C6.48572 21.9921 6.51001 21.8468 6.54859 21.7058C6.6229 21.4324 6.68435 21.1518 6.79439 20.8928C6.84298 20.7777 6.99731 20.71 7.10306 20.6179C7.16737 20.5618 7.22453 20.4985 7.2917 20.4467C7.33457 20.4136 7.38744 20.3935 7.43603 20.3676C7.46032 20.4194 7.50319 20.4683 7.50748 20.5215C7.53606 20.9144 7.55464 21.3086 7.58036 21.7029C7.65181 22.762 7.72898 23.8211 7.79758 24.8787C7.80901 25.0485 7.78757 25.2212 7.79758 25.3909C7.80329 25.4859 7.85331 25.578 7.86474 25.673C7.9119 26.0601 7.9462 26.4471 7.99621 26.8342C8.02337 27.0414 8.07767 27.2443 8.11054 27.4515C8.15341 27.7235 8.18628 27.9969 8.22772 28.2674C8.33918 28.9883 8.46065 29.7078 8.56211 30.4302C8.62499 30.8762 8.64071 31.3295 8.71073 31.7741C8.76075 32.0893 8.8665 32.3943 8.94367 32.7037C8.96368 32.7857 8.97082 32.8706 9.01083 32.9728C9.84111 31.8389 10.4842 30.5798 11.3373 29.4301C11.3302 29.5006 11.3259 29.5524 11.3202 29.6186C11.3816 29.6128 11.4359 29.6071 11.5017 29.5999C11.4774 29.5308 11.4588 29.4761 11.4316 29.4013C11.5388 29.361 11.636 29.325 11.716 29.2948C11.726 29.1826 11.736 29.0747 11.7503 28.9279C11.8275 28.9811 11.8618 29.0042 11.9046 29.0344C11.9547 28.9466 12.0318 28.8732 11.8918 28.7883C11.8661 28.7725 11.8661 28.6631 11.8918 28.6214C11.9304 28.561 12.0047 28.5221 12.0676 28.4717C12.0804 28.4199 12.0833 28.335 12.1219 28.2732C12.3033 27.9767 12.5406 27.7221 12.492 27.3148C12.4505 26.9724 12.4763 26.6141 12.5234 26.2687C12.5577 26.0198 12.5334 25.7737 12.5606 25.5262C12.6077 25.0974 12.6477 24.6686 12.6863 24.2383C12.6935 24.1534 12.6506 24.0527 12.6835 23.9851C12.8021 23.7419 12.7306 23.4786 12.7806 23.2296C12.8321 22.9692 12.8507 22.7015 12.8964 22.4382C12.9779 21.9734 13.0665 21.5115 13.1579 21.0496C13.1679 20.995 13.2122 20.9475 13.2508 20.8798C13.2508 20.7921 13.2365 20.6726 13.2537 20.5575C13.2865 20.3503 13.328 20.1445 13.3837 19.9416C13.4552 19.6754 13.5352 19.4107 13.6295 19.1531C13.6581 19.074 13.7367 19.002 13.8096 18.9545C13.8467 18.9301 13.971 18.9574 13.9753 18.979C14.0253 19.2279 14.2511 19.2812 14.4198 19.3876C14.8971 19.6884 15.0814 20.1474 15.1414 20.6784C15.2143 21.3245 15.2843 21.972 15.3443 22.6195C15.3715 22.9088 15.3672 23.1994 15.3801 23.4901C15.3829 23.5563 15.3972 23.6225 15.4158 23.7505C15.623 23.4843 15.7916 23.2699 15.9588 23.0527C16.1789 22.7649 16.3933 22.4756 16.6148 22.1893C16.6405 22.1562 16.6919 22.1418 16.7334 22.126C16.7705 22.113 16.822 22.1216 16.8477 22.1001C16.9706 21.9921 17.0821 21.8713 17.2064 21.7677C17.255 21.7274 17.3307 21.7216 17.395 21.6986C17.395 21.7648 17.4136 21.8411 17.3893 21.8957C17.3393 22.0065 17.2936 22.0886 17.3579 22.2296C17.3979 22.3159 17.2878 22.4728 17.2378 22.621C17.2378 22.6685 17.2664 22.7649 17.2335 22.8239C16.952 23.3232 16.6634 23.8182 16.369 24.3089C16.1403 24.6902 15.8988 25.0643 15.6616 25.4384C15.613 25.5147 15.5444 25.5794 15.4987 25.6586C15.3944 25.8356 15.3744 26.014 15.4029 26.2327C15.4572 26.6328 15.453 27.0414 15.4515 27.4472C15.4515 27.8127 15.4115 28.1768 15.4087 28.5423C15.4087 28.712 15.4758 28.8818 15.4758 29.0516C15.4772 29.3279 15.3815 29.6243 15.4501 29.8776C15.543 30.2201 15.4301 30.5424 15.4687 30.8748C15.5015 31.1568 15.4687 31.4461 15.4687 31.731C15.4687 31.8662 15.4801 32.0001 15.4801 32.1353C15.4772 32.6145 15.4658 33.0922 15.4672 33.5714C15.4687 34.1772 15.4887 34.783 15.4873 35.3888C15.4873 35.8003 15.4715 36.2119 15.4472 36.6234C15.4344 36.8277 15.3829 37.0278 15.3472 37.2422C15.0643 37.1385 15.1671 36.927 15.15 36.704C15.0271 36.7961 14.9299 36.868 14.8085 36.9587C14.777 36.8464 14.7527 36.7558 14.7141 36.6162C14.4641 36.868 14.6541 37.3011 14.2969 37.4494C14.2354 37.3904 14.0639 37.4321 14.0496 37.2609C13.9953 37.2652 13.941 37.2709 13.8467 37.2781C13.8153 37.1472 13.7838 37.0062 13.7438 36.8364C13.8353 36.9716 13.901 37.0738 13.9768 37.1673C13.9825 37.1745 14.0554 37.1285 14.0482 37.1328C13.9968 36.9299 13.9525 36.7615 13.9039 36.5745C13.8524 36.5989 13.8267 36.6191 13.7996 36.6205C13.7553 36.6234 13.7095 36.6148 13.6638 36.6119C13.6795 36.5687 13.6881 36.5212 13.711 36.4838C13.7495 36.4219 13.831 36.3687 13.8353 36.3068C13.8496 36.0665 13.7853 36.0262 13.5237 36.1126C13.5409 36.019 13.5552 35.9399 13.5709 35.855C13.368 35.6507 13.2537 35.1801 13.3323 35.0478C13.2579 34.7959 13.1836 34.5916 13.1408 34.3815C13.0979 34.1729 13.0893 33.9585 13.065 33.7455C13.0622 33.7196 13.055 33.6937 13.0493 33.6692C12.9607 33.2131 12.8264 32.7584 12.7992 32.2994C12.7778 31.9281 12.652 31.5669 12.7121 31.1856C12.7349 31.0417 12.682 30.8849 12.652 30.7367C12.6435 30.6935 12.5963 30.6575 12.5663 30.6187C12.5291 30.6518 12.4777 30.6777 12.4577 30.7194C12.2633 31.1007 12.0818 31.4878 11.8818 31.8648C11.7203 32.1713 11.5331 32.462 11.3688 32.767C11.2087 33.062 11.0587 33.3642 10.9143 33.6664C10.8214 33.8621 10.7857 34.1009 10.6542 34.2621C10.3699 34.6118 10.3941 35.0794 10.1598 35.4377C10.0169 35.6579 9.97115 35.9025 9.91685 36.15C9.90827 36.1917 9.8654 36.2248 9.83968 36.2622C9.82253 36.2881 9.78966 36.3241 9.79681 36.3414C9.92685 36.6364 9.77251 36.9184 9.70821 37.1788C9.59817 37.6235 9.62246 38.0796 9.51814 38.5228C9.47813 38.6926 9.48385 38.8639 9.34094 38.9962C9.30665 39.0279 9.32236 39.1114 9.30236 39.166C9.2652 39.2653 9.2109 39.3574 9.18089 39.4581C9.15945 39.5301 9.18089 39.6179 9.15231 39.6855C9.10515 39.802 9.0537 39.9344 8.96368 40.0093C8.92223 40.0438 8.77647 39.9704 8.69073 39.9244C8.65214 39.9042 8.62785 39.8308 8.62213 39.7776C8.59069 39.4941 8.57069 39.2092 8.53639 38.9257C8.52496 38.8322 8.54782 38.7084 8.39349 38.684C8.37205 38.6811 8.36776 38.5746 8.3549 38.5156C8.23343 38.5617 8.11197 38.6092 7.98907 38.6523C7.83759 38.7056 7.68325 38.7531 7.53177 38.8063C7.49891 38.8178 7.47318 38.848 7.44175 38.8667C7.41174 38.8854 7.36743 38.9229 7.34886 38.9128C7.18023 38.8236 6.93015 38.8164 6.90585 38.5689C6.88156 38.3271 6.68864 38.2322 6.56003 38.0796C6.52573 38.0379 6.48714 37.9875 6.47857 37.9372C6.43284 37.6494 6.38711 37.3616 6.3571 37.0724C6.34138 36.917 6.35424 36.7572 6.35424 36.5975H6.5686C6.58289 36.5817 6.59575 36.5644 6.61004 36.5486C6.52573 36.4666 6.42855 36.3932 6.35853 36.2996C6.3028 36.2234 6.2585 36.1241 6.24564 36.0306C6.2142 35.7874 6.19991 35.5413 6.18419 35.2953C6.15846 34.9111 6.1356 34.5254 6.11274 34.1412C6.0913 33.7685 6.06701 33.3973 6.05129 33.0246C6.01842 32.2504 5.98412 31.4777 5.96269 30.7036C5.95411 30.3697 5.98555 30.0359 5.98412 29.702C5.98126 29.1696 5.96554 28.6358 5.95983 28.1034C5.95983 28.0285 5.98555 27.9537 5.98984 27.9293C5.96983 27.7551 5.93982 27.6242 5.94411 27.4947C5.97269 26.6687 5.99841 25.8428 6.047 25.0183C6.06844 24.6456 6.13989 24.2758 6.19276 23.906C6.22706 23.67 6.26707 23.4369 6.30566 23.2023C6.30851 23.1822 6.3128 23.1505 6.3228 23.1476C6.61576 23.0656 6.40712 22.857 6.43284 22.7087C6.43999 22.6656 6.42427 22.5951 6.44713 22.5807C6.68435 22.4267 6.54002 22.2814 6.45285 22.1504V22.1476H6.45142ZM15.1057 33.403C14.8971 33.5023 14.8728 33.6577 14.9185 33.8045C14.9614 33.9441 15.0957 34.0649 14.9113 34.1988C14.8956 34.2103 14.9156 34.2736 14.9185 34.3124C14.9399 34.6837 14.9785 35.0549 14.9742 35.4248C14.9714 35.5816 15.0314 35.6161 15.1843 35.6651C15.1571 34.9039 15.1328 34.1671 15.1057 33.4016V33.403ZM14.8899 32.1583C14.8842 32.2763 14.8813 32.367 14.8742 32.4576C14.867 32.5526 14.8542 32.6476 14.8385 32.7972C14.9485 32.7699 15.0242 32.7497 15.1 32.731C15.0543 32.6994 15.01 32.6692 14.9471 32.626C14.9614 32.5656 14.9585 32.4677 15.0042 32.4058C15.1186 32.2533 15.0171 32.2188 14.8885 32.1583H14.8899ZM15.1243 35.7284L15.0485 35.7313C15.0485 35.9975 15.0485 36.2637 15.0514 36.5299C15.0514 36.5428 15.1028 36.5529 15.13 36.5658C15.1429 36.5328 15.1657 36.4997 15.1657 36.4666C15.1657 36.3586 15.1557 36.2522 15.1486 36.1442C15.14 36.0061 15.1328 35.868 15.1243 35.7284ZM15.01 30.3323C14.9842 30.328 14.9571 30.3237 14.9314 30.3208C14.9042 30.4503 14.8771 30.5798 14.8442 30.7381C14.8728 30.7582 14.9228 30.7913 15.01 30.8518V30.3323ZM14.9228 29.6963C14.847 29.6891 14.7985 29.6833 14.7456 29.679C14.687 29.8949 14.8599 29.8503 14.9899 29.9121C14.9585 29.8114 14.9385 29.7467 14.9228 29.6963ZM15.0828 33.2807C15.0628 33.1411 15.0485 33.0433 15.0342 32.9382C14.8699 33.0606 14.8742 33.121 15.0828 33.2807Z" fill="black"/>
<path d="M29.7136 31.5166C29.8208 31.6216 29.695 31.7065 29.6478 31.7957C29.6093 31.8691 29.5435 31.9267 29.4935 31.9943C29.3663 32.1626 29.2534 32.344 29.1105 32.495C29.0648 32.544 28.9405 32.5181 28.8519 32.5253C28.8633 32.7253 28.5675 33.1814 28.3731 33.226C28.2545 33.2534 28.2717 33.1656 28.316 33.0936C28.326 33.0764 28.3417 33.0634 28.3546 33.0476C28.3446 33.0332 28.336 33.0203 28.326 33.0059C28.2702 33.0361 28.2159 33.0663 28.1588 33.098C28.3017 33.3081 28.2802 33.3915 28.0344 33.5426C27.8801 33.6376 27.7915 33.557 27.7501 33.3901C27.7329 33.3901 27.7143 33.3901 27.6972 33.3901C27.6715 33.4649 27.6157 33.5455 27.6257 33.6145C27.6615 33.8692 27.6057 33.9225 27.3499 33.8462C27.4628 34.088 27.1685 34.0088 27.1184 34.1283C27.1342 33.9944 27.1499 33.8606 27.1713 33.6692C27.1099 33.7656 27.067 33.8318 27.0184 33.9067C26.9541 33.9038 26.8769 33.8995 26.8012 33.8951L26.7869 33.957C26.8512 33.9815 26.9169 34.0074 26.9798 34.0318C26.9155 34.1527 26.8326 34.2491 26.6711 34.2506C26.6226 34.2506 26.544 34.2966 26.5311 34.3369C26.4739 34.5297 26.3225 34.5297 26.1695 34.5499C26.1181 34.5571 26.0738 34.6031 26.0209 34.6189C25.9723 34.6333 25.9066 34.652 25.8709 34.6304C25.838 34.6103 25.8366 34.5398 25.8123 34.4592C25.7966 34.4678 25.728 34.4923 25.7294 34.5125C25.7437 34.8046 25.5036 34.806 25.3293 34.8549C25.0192 34.9441 24.7019 35.0089 24.3861 35.0736C24.2361 35.1039 24.0803 35.124 23.9288 35.1154C23.8716 35.1125 23.8131 35.0233 23.7659 34.9643C23.7173 34.9053 23.6816 34.8348 23.6416 34.7729C23.5615 34.7844 23.4901 34.7945 23.4144 34.8046C23.5072 34.888 23.6016 34.9729 23.7045 35.065C23.5072 35.2219 23.31 35.1729 23.0985 35.1139C22.9142 35.0621 22.7184 35.0463 22.5069 35.0103C22.4941 35.0247 22.4569 35.0636 22.384 35.1427C22.394 35.029 22.3997 34.9657 22.4055 34.8938C22.3426 34.8808 22.2826 34.8679 22.2197 34.8549C22.1968 34.9139 22.1739 34.97 22.1525 35.0247L22.1068 35.0175C22.0982 34.9772 22.1011 34.9254 22.0768 34.8967C22.031 34.842 21.9453 34.747 21.9196 34.76C21.7681 34.8305 21.6724 34.7398 21.5637 34.6722C21.5309 34.652 21.4952 34.629 21.4594 34.6261C20.985 34.5916 20.5305 34.4563 20.0775 34.334C19.8189 34.265 19.5831 34.111 19.333 34.0074C18.9972 33.8678 18.7657 33.5786 18.4627 33.3973C18.1969 33.2375 18.0154 33.0102 17.8525 32.7627C17.7196 32.5598 17.6596 32.295 17.4967 32.1295C17.2538 31.8821 17.3381 31.5741 17.2509 31.3022C17.2309 31.2403 17.188 31.1856 17.1537 31.1295C17.1437 31.1137 17.1137 31.0978 17.1151 31.0906C17.2052 30.8402 17.0294 30.61 17.058 30.3654C17.098 30.0085 17.0394 29.6474 17.1794 29.2934C17.2809 29.0358 17.2609 28.7322 17.3424 28.4645C17.4181 28.2127 17.5496 27.9782 17.6667 27.7407C17.8197 27.4314 17.974 27.1206 18.144 26.8198C18.2769 26.5838 18.4227 26.3536 18.5828 26.1363C18.8128 25.8255 19.0543 25.5233 19.3059 25.2298C19.4759 25.0312 19.6731 24.8542 19.8546 24.6657C20.129 24.3794 20.3934 24.0858 20.672 23.8052C20.8464 23.6297 21.0393 23.4728 21.2236 23.3088C21.2422 23.2929 21.2751 23.2656 21.2708 23.2555C21.2022 23.0857 21.3437 23.116 21.4208 23.0958C21.4909 22.9922 21.3708 22.7577 21.6323 22.8066C21.6624 22.585 21.8996 22.5677 22.0082 22.4209C22.0882 22.313 22.1511 22.1792 22.334 22.195C22.3897 22.1993 22.4498 22.0986 22.5169 22.067C22.5641 22.0454 22.6284 22.0612 22.6841 22.0612V22.2655C22.7484 22.2353 22.8127 22.2123 22.867 22.1749C22.8799 22.1663 22.867 22.0957 22.8442 22.0698C22.807 22.0252 22.7541 21.9921 22.7313 21.9734C22.8527 21.8885 22.9328 21.8022 23.0285 21.7734C23.1357 21.7432 23.2572 21.7662 23.3772 21.7662C23.3572 21.7446 23.3215 21.7043 23.2486 21.6238C23.4715 21.5417 23.6759 21.4741 23.8759 21.3921C24.0374 21.3259 24.1875 21.2165 24.3532 21.1763C24.579 21.1216 24.8148 21.1072 25.0478 21.0914C25.0992 21.087 25.1549 21.146 25.2078 21.1763C25.1792 21.2266 25.1564 21.2813 25.1221 21.3273C25.0392 21.4338 24.9834 21.5245 25.1149 21.6482C25.1978 21.7259 25.2335 21.854 25.3021 21.949C25.3293 21.9864 25.3964 22.0281 25.435 22.0195C25.6451 21.9734 25.668 22.1519 25.7708 22.2655C25.9566 22.2612 26.0895 22.1504 26.091 21.9403C26.1567 22.0353 26.1953 22.1504 26.2582 22.1677C26.3267 22.1864 26.4196 22.1144 26.5225 22.0742C26.5225 22.0742 26.5082 22.0454 26.4782 21.9864C26.6126 21.9864 26.7412 21.9562 26.8498 21.9921C27.2242 22.1173 27.6115 22.2252 27.9544 22.4123C28.4632 22.69 28.9362 23.0339 29.2677 23.5333C29.3292 23.6253 29.4278 23.6915 29.4821 23.7865C29.5321 23.8743 29.5464 23.9822 29.5821 24.1002C29.6893 24.0714 29.7636 24.1707 29.8236 24.3132C29.9508 24.6211 30.0894 24.9233 30.2223 25.2269C30.278 25.3564 30.2523 25.4514 30.0337 25.5017C30.4295 25.5809 30.4081 25.8744 30.4395 26.1047C30.5381 26.8328 30.6353 27.5623 30.6753 28.2947C30.6953 28.6775 30.5953 29.066 30.5424 29.4517C30.5196 29.6215 30.4853 29.7913 30.4395 29.9567C30.3895 30.1438 30.3238 30.3265 30.2609 30.5093C30.1666 30.7827 30.0808 31.059 29.9665 31.3237C29.9322 31.4029 29.8122 31.446 29.7164 31.5151L29.7136 31.518V31.5166ZM21.0279 28.2775C20.9635 28.5034 20.9064 28.7048 20.8478 28.9049C20.8078 29.0444 20.8006 29.2114 20.7178 29.3164C20.5448 29.5366 20.5191 29.8157 20.5434 30.033C20.5806 30.3539 20.6492 30.7093 20.885 30.9683C20.9993 31.0949 21.0836 31.2777 21.2922 31.2921C21.3122 31.2921 21.3365 31.3209 21.3465 31.3424C21.4466 31.5741 21.6295 31.6964 21.8638 31.7655C21.9139 31.7799 21.9667 31.8561 21.981 31.9137C22.0096 32.0346 22.0696 32.0518 22.1797 32.036C22.2683 32.0231 22.3683 32.0159 22.4498 32.0461C22.8256 32.1842 23.1857 32.3641 23.603 32.3497C24.0431 32.3353 24.4833 32.3396 24.9234 32.3267C24.9906 32.3267 25.0549 32.2663 25.1235 32.2475C25.2621 32.2116 25.405 32.19 25.5451 32.1569C25.7651 32.1022 25.9852 32.0418 26.201 31.9857C26.2796 31.9339 26.371 31.8245 26.4439 31.836C26.6969 31.8763 26.7669 31.6302 26.9598 31.5626C27.0341 31.7266 27.1013 31.5813 27.1856 31.5497C27.1556 31.4806 27.1327 31.4259 27.0999 31.3468C27.2456 31.3669 27.4085 31.4576 27.3914 31.2158C27.3914 31.1985 27.42 31.1712 27.4414 31.164C27.6958 31.0647 27.8301 30.8402 27.9344 30.6187C28.2116 30.033 28.5703 29.479 28.6404 28.807C28.6604 28.6099 28.7518 28.4199 28.7675 28.2242C28.7833 28.0415 28.749 27.853 28.729 27.6674C28.6718 27.1493 28.6461 26.6227 28.5403 26.1147C28.4532 25.696 28.3145 25.2758 28.1202 24.8959C27.8615 24.3866 27.5443 23.9045 27.127 23.5016C26.9512 23.3318 26.7998 23.1203 26.5968 22.9965C26.2038 22.7562 25.7851 22.5519 25.315 22.5102C25.2207 22.5015 25.1006 22.5245 25.0277 22.5807C24.9449 22.6425 24.9006 22.7562 24.8434 22.8498C24.7691 22.9706 24.7076 23.0987 24.6262 23.2138C24.5204 23.3649 24.409 23.5131 24.2875 23.6512C24.2603 23.6829 24.1803 23.6671 24.0889 23.6771C24.0946 23.7275 24.1032 23.798 24.1146 23.8901C24.0689 23.8872 23.9974 23.8642 23.9474 23.8858C23.8974 23.9074 23.8259 24.0009 23.8359 24.0196C23.9245 24.1721 23.8445 24.2815 23.7602 24.4081C23.6644 24.3506 23.6201 24.3664 23.5801 24.493C23.5387 24.624 23.4558 24.7564 23.3543 24.847C23.1986 24.9866 22.9385 25.0125 22.9013 25.283C22.8985 25.3089 22.8642 25.3449 22.8385 25.3535C22.6055 25.4312 22.6727 25.6485 22.5941 25.8327C22.5498 25.837 22.4726 25.8428 22.3969 25.85C22.2926 26.0529 22.1797 26.2687 22.0682 26.486C21.9782 26.5953 21.9081 26.732 21.8095 26.8414C21.6038 27.0673 21.4294 27.3047 21.3751 27.6141C21.3708 27.6415 21.3365 27.6659 21.3122 27.6875C21.1436 27.8372 21.0964 28.0401 21.1808 28.2473C21.1836 28.2559 21.1708 28.2703 21.1608 28.2919C21.115 28.2875 21.065 28.2818 21.0236 28.2775H21.0279ZM24.2189 32.8649C24.2089 32.8447 24.2003 32.8246 24.1903 32.8044C23.9202 32.7872 23.6459 32.7958 23.3815 32.7454C23.0371 32.6821 22.6955 32.59 22.364 32.4778C22.0596 32.3756 21.7438 32.2677 21.4794 32.0907C21.2922 31.9655 21.1136 31.8619 20.9078 31.8302C20.945 31.7972 20.9864 31.7597 21.0522 31.7007C20.9335 31.6705 20.8607 31.6504 20.7921 31.6331C20.7964 31.5281 20.8006 31.4345 20.8064 31.3266C20.7292 31.3439 20.682 31.3554 20.6449 31.364C20.6449 31.4633 20.6363 31.5554 20.6477 31.6432C20.6577 31.7166 20.6706 31.8159 20.7192 31.8547C20.8049 31.9209 20.8535 31.9684 20.7921 32.0763C20.7792 32.0993 20.7949 32.167 20.8192 32.1814C21.0136 32.308 21.2122 32.5224 21.4094 32.5224C21.6066 32.5224 21.5809 32.6188 21.6366 32.7109C21.6695 32.7037 21.7124 32.6778 21.7381 32.6893C22.1639 32.8792 22.6298 32.8605 23.0742 32.9454C23.3686 33.003 23.6673 32.8764 23.9674 32.9598C24.036 32.9785 24.1332 32.8951 24.216 32.8591L24.2189 32.8649ZM29.1191 23.9059C29.1305 23.9534 29.1305 23.975 29.1405 23.9908C29.1805 24.0556 29.2234 24.1175 29.2663 24.1808C29.2763 24.1175 29.2877 24.0527 29.2963 23.9894C29.302 23.9448 29.3206 23.8901 29.302 23.857C29.2777 23.8138 29.2248 23.7635 29.1805 23.7592C29.1234 23.7549 29.0634 23.7923 29.0119 23.8081C29.0162 23.8815 29.0205 23.9419 29.0276 24.0369C29.0676 23.9779 29.0862 23.9505 29.1191 23.9031V23.9059ZM22.4783 33.4951C22.4712 33.5009 22.464 33.5081 22.4569 33.5138C22.5426 33.5397 22.627 33.5815 22.7141 33.5901C22.8613 33.603 23.0114 33.5973 23.16 33.5944C23.25 33.5944 23.3386 33.5786 23.4272 33.5714C23.4272 33.5469 23.4244 33.521 23.4244 33.4966H22.4783V33.4951ZM18.2084 31.4029C18.1598 31.2072 18.114 31.023 18.0683 30.8374C17.9668 31.0734 18.0326 31.2763 18.2084 31.4029ZM23.5373 33.4922C23.5344 33.5138 23.533 33.5354 23.5301 33.5584C23.7502 33.6145 23.9517 33.4894 24.1646 33.4735C24.1646 33.4548 24.1617 33.4376 24.1603 33.4189C23.9531 33.4433 23.7445 33.4678 23.5373 33.4937V33.4922ZM28.3003 22.8742C28.2174 23.057 28.2602 23.1145 28.6004 23.2282C28.5017 23.1131 28.4046 22.9965 28.3003 22.8742ZM23.2443 34.8693C23.1986 34.6031 23.08 34.7312 22.9899 34.747C22.9856 34.77 22.9799 34.793 22.9756 34.8161C23.0585 34.8333 23.14 34.8492 23.2443 34.8708V34.8693Z" fill="black"/>
<path d="M25.1321 19.5459C25.0893 19.6869 24.9907 19.7301 24.8663 19.6654C24.8278 19.6452 24.8178 19.5718 24.7763 19.4826C24.7406 19.5603 24.7091 19.6308 24.6648 19.7258C24.5577 19.7157 24.4305 19.7056 24.3219 19.6956C24.2676 19.7215 24.2204 19.7603 24.1675 19.7675C23.7588 19.8236 23.3487 19.8783 22.9386 19.9258C22.8828 19.9316 22.8185 19.9085 22.7656 19.8826C22.7213 19.8611 22.6885 19.8179 22.6499 19.7834C22.637 19.8352 22.6227 19.887 22.5984 19.9805C21.7253 20.0352 20.8379 20.0913 19.929 20.1488C19.9419 20.074 19.9476 20.0409 19.9561 19.9949C19.9204 19.9949 19.8776 19.9819 19.859 19.9949C19.6103 20.1949 19.3288 20.11 19.0559 20.0956C19.0101 20.0927 18.9658 20.087 18.9201 20.0841C18.7729 20.0755 18.5757 20.1388 18.6086 19.8668C18.6086 19.8611 18.5886 19.851 18.5771 19.8481C18.5657 19.8452 18.5514 19.8481 18.5157 19.8481C18.5128 19.9057 18.5085 19.9661 18.5057 20.028C18.3113 20.0927 18.2985 19.9071 18.2013 19.8078V19.9963C17.9741 19.9143 17.7597 19.838 17.5096 19.7474C17.5839 19.7272 17.6211 19.7172 17.6597 19.7071C17.6754 19.6884 17.6897 19.6697 17.7054 19.651C17.6497 19.6179 17.5854 19.5934 17.5396 19.5502C17.4739 19.4855 17.4267 19.3992 17.361 19.3344C17.2981 19.2725 17.2152 19.2308 17.1509 19.1689C17.0923 19.1142 17.0095 19.0466 17.0066 18.9819C17.0037 18.9185 17.0752 18.8164 17.1381 18.7919C17.4167 18.684 17.704 18.5977 17.9869 18.5041C18.157 18.448 18.3285 18.3933 18.5 18.3386C18.5314 18.3286 18.5643 18.3127 18.5943 18.3156C18.8201 18.3386 19.0173 18.2466 19.2245 18.176C19.376 18.1242 19.5403 18.1142 19.6975 18.0782C19.8333 18.0465 19.9633 17.9933 20.1005 17.9688C20.4334 17.9098 20.7678 17.8609 21.1037 17.8134C21.3895 17.7717 21.6796 17.7458 21.964 17.694C22.1869 17.6537 22.4084 17.53 22.6242 17.5429C22.8785 17.5587 23.1143 17.3947 23.3658 17.494C23.3816 17.4997 23.4087 17.494 23.4216 17.4825C23.5488 17.3573 23.7088 17.4062 23.8589 17.3933C24.1247 17.3688 24.3919 17.3386 24.652 17.2839C24.7534 17.2637 24.8406 17.1645 24.8835 17.2738C25.1221 17.2494 25.3394 17.2378 25.5537 17.2019C25.7166 17.1745 25.8724 17.2321 26.0482 17.1702C26.2439 17.1011 26.4797 17.1458 26.6969 17.1429C26.8513 17.1414 27.007 17.1328 27.1614 17.1429C27.2814 17.1515 27.3986 17.1976 27.5186 17.2019C27.6473 17.2062 27.7773 17.1817 27.9031 17.1688C28.0488 17.1817 28.2817 17.2623 28.3346 17.1961C28.4461 17.058 28.4218 17.2335 28.4732 17.2307C28.7476 17.2163 29.0234 17.2407 29.2992 17.2422C29.355 17.2422 29.4121 17.199 29.515 17.1573C29.5393 17.1386 29.6065 17.0839 29.7108 17.0004V17.2681H31.137C31.137 17.2681 31.1313 17.2307 31.1227 17.1788C31.277 17.1961 31.4214 17.1529 31.5528 17.3098C31.6114 17.3803 31.79 17.3544 31.9144 17.3645C32.2502 17.3904 32.5846 17.412 32.9204 17.4364C33.1605 17.4537 33.3991 17.4753 33.6392 17.4868C33.7878 17.494 33.9508 17.4465 34.0837 17.4911C34.2709 17.5544 34.5038 17.5199 34.6824 17.7328C34.4766 17.7775 34.3094 17.8134 34.1108 17.8566C34.1565 17.9818 34.2094 18.0868 34.2309 18.1991C34.2437 18.2609 34.2251 18.3732 34.1851 18.3933C34.0136 18.4825 33.8307 18.5487 33.6492 18.6149C33.6192 18.625 33.5749 18.5818 33.5363 18.5818C33.4306 18.5818 33.3005 18.5516 33.2277 18.6034C33.1576 18.6538 33.1119 18.5473 33.0119 18.6379C32.8661 18.7718 32.5946 18.7732 32.3731 18.8149C32.1402 18.8595 31.9029 18.8869 31.6672 18.9171C31.4914 18.9401 31.3156 18.9545 31.1398 18.9718C30.9555 18.9891 30.7626 19.0365 30.6497 18.8063C30.6354 18.8164 30.6211 18.825 30.6082 18.8351C30.6197 18.8898 30.6297 18.943 30.6425 19.0092C30.4024 19.0337 30.1466 19.0596 29.8909 19.0855C29.8651 19.0883 29.838 19.0811 29.8137 19.0883C29.6379 19.1373 29.455 19.225 29.3335 18.9775V19.1545C29.1463 19.1732 29.142 19.1704 29.1578 18.9905C29.1392 18.9905 29.1049 18.9862 29.1049 18.9905C29.0463 19.2236 28.8577 19.2106 28.6776 19.2308C27.783 19.3301 26.8884 19.4337 25.9953 19.5373C25.7638 19.5646 25.5337 19.602 25.3022 19.6222C25.2522 19.6265 25.1964 19.5747 25.1293 19.5416H25.1321V19.5459Z" fill="black"/>
<path d="M25.5136 3.952C25.6507 4.20094 25.7751 4.42685 25.898 4.64845C25.9394 4.59233 25.9837 4.53334 26.0352 4.46571C25.8708 4.29591 26.0752 3.91603 25.6708 3.86566C25.6708 3.84552 25.6736 3.82393 25.675 3.80379C25.7665 3.7635 25.8608 3.72752 25.9494 3.68292C26.1138 3.59946 26.2524 3.68004 26.3681 3.77069C26.4639 3.84552 26.6053 3.93329 26.5125 4.10597C26.5039 4.1218 26.5025 4.15201 26.5125 4.16353C26.6939 4.39951 26.5582 4.73479 26.7668 4.97078C26.8168 5.0269 26.7725 5.16216 26.7783 5.26145C26.784 5.36505 26.8083 5.46865 26.8068 5.57082C26.8068 5.64421 26.7754 5.71615 26.7554 5.80393C26.7768 5.7881 26.7954 5.77515 26.8454 5.74062C26.8254 5.90897 26.7911 6.05431 26.7968 6.19676C26.804 6.38239 26.8526 6.56514 26.8669 6.75076C26.8983 7.13496 26.9183 7.5206 26.9426 7.90624C26.9555 8.10625 26.9712 8.30483 26.974 8.50484C26.974 8.64442 26.9626 8.78544 26.9455 8.92502C26.9426 8.9466 26.8869 8.96099 26.8683 8.9725C26.8826 9.03294 26.9112 9.09481 26.9097 9.15525C26.9026 9.38836 26.8883 9.62003 26.8726 9.8517C26.8569 10.0963 26.8854 10.3582 26.8026 10.5769C26.7368 10.751 26.7625 10.9065 26.7397 11.0691C26.7111 11.2719 26.6568 11.4691 26.6411 11.6792C26.6254 11.8777 26.5067 12.0662 26.451 12.2648C26.3824 12.5138 26.3353 12.767 26.2752 13.0188C26.2595 13.085 26.2338 13.1498 26.2224 13.1829C26.2424 13.2707 26.281 13.3397 26.2652 13.3944C26.2209 13.5498 26.098 13.7023 26.108 13.8491C26.1223 14.065 25.8651 14.206 25.9837 14.4333C25.9994 14.4621 25.9709 14.5225 25.9508 14.56C25.7808 14.8765 25.7679 15.2406 25.6436 15.5715C25.5979 15.6924 25.5493 15.8118 25.5064 15.9226C25.3221 15.8464 25.1577 15.7802 24.9691 15.7025C24.7719 15.7787 24.6761 15.7471 24.5861 15.5169C24.5118 15.3269 24.4646 15.1255 24.3975 14.9326C24.3189 14.711 24.2231 14.4952 24.1517 14.2707C24.0931 14.088 24.0631 13.8966 24.0131 13.7095C23.9802 13.5887 23.9316 13.4735 23.8973 13.3541C23.7958 12.9915 23.6715 12.6318 23.6086 12.2619C23.5401 11.8518 23.4986 11.4317 23.5086 11.0173C23.5129 10.8302 23.5029 10.6633 23.4643 10.4834C23.43 10.3222 23.4786 10.1438 23.4757 9.97257C23.4686 9.60564 23.4529 9.24015 23.44 8.87321C23.44 8.83436 23.4243 8.79119 23.4357 8.7581C23.5386 8.45448 23.4729 8.14223 23.4972 7.83573C23.5229 7.51628 23.6058 7.20115 23.6215 6.88027C23.6287 6.73637 23.713 6.60687 23.6701 6.45578C23.6558 6.40397 23.6901 6.33059 23.7173 6.27591C23.7901 6.13345 23.7444 5.97229 23.7987 5.82983C23.8116 5.79674 23.8502 5.77371 23.8859 5.73774C23.8101 5.54348 23.9216 5.2413 24.126 5.13913C24.0574 5.03121 24.3403 4.58658 24.4532 4.62543C24.5275 4.64989 24.5975 4.68874 24.699 4.73479C24.6833 4.65996 24.6733 4.61536 24.6633 4.56931C24.709 4.54773 24.7547 4.52758 24.8019 4.506C24.8062 4.53046 24.8162 4.57794 24.8276 4.63694C24.9705 4.53621 25.142 4.49448 25.1663 4.28871C25.172 4.24411 25.2463 4.20813 25.2892 4.16784C25.3649 4.09733 25.4407 4.02682 25.5193 3.95344H25.5136V3.952Z" fill="black"/>
<path d="M9.43806 10.8086C9.37661 10.7424 9.32802 10.669 9.44949 10.5237C9.52666 10.4316 9.47092 10.2258 9.4695 10.0719C9.4695 10.0416 9.43234 10.01 9.4352 9.98265C9.48379 9.56391 9.4352 9.12359 9.68242 8.74659C9.71386 8.69766 9.75388 8.64298 9.80246 8.61996C9.87106 8.5883 9.9568 8.5624 10.024 8.57967C10.054 8.58686 10.0754 8.70918 10.0654 8.77393C10.0454 8.90631 9.99967 9.03582 9.96109 9.18115C10.1469 9.1754 10.3069 9.2272 10.3927 9.4157C10.3998 9.43297 10.4713 9.44016 10.4955 9.42577C10.6042 9.35526 10.707 9.27756 10.8085 9.19842C11 9.04733 11.1658 9.0646 11.3172 9.25598C11.4201 9.38692 11.553 9.50348 11.6202 9.65025C11.7059 9.83587 11.7674 10.0373 11.7288 10.2589C11.7131 10.3496 11.7674 10.4546 11.796 10.551C11.826 10.6503 11.8831 10.7439 11.8932 10.8446C11.9703 11.6331 12.0704 12.4217 11.9575 13.2131C11.8946 13.6505 11.7831 14.0793 11.7017 14.5139C11.6116 14.9945 11.5073 15.4737 11.4559 15.9572C11.4259 16.2493 11.3015 16.4666 11.1229 16.6709C11.0372 16.7687 10.9843 16.7011 10.9428 16.6277C10.8442 16.4479 10.7513 16.2651 10.657 16.0838C10.4927 15.7687 10.3055 15.4622 10.1697 15.1341C9.99538 14.7096 9.84962 14.2693 9.71529 13.8304C9.6124 13.4937 9.50093 13.1483 9.47521 12.8016C9.45663 12.5454 9.35946 12.3195 9.32802 12.0763C9.29229 11.8087 9.24514 11.5396 9.25228 11.2719C9.25657 11.1266 9.36518 10.9827 9.43663 10.8129V10.8086H9.43806Z" fill="black"/>
<path d="M24.0373 0.530175C24.0402 0.494202 24.0444 0.459667 24.0473 0.423693C24.1745 0.48269 24.3574 0.192022 24.4503 0.548882C24.5046 0.22224 24.6961 0.229435 24.9076 0.243824C24.9805 0.248141 25.0548 0.18051 25.1319 0.156048C25.1791 0.141658 25.2534 0.122952 25.282 0.147414C25.3563 0.209289 25.5535 0.176193 25.4692 0.371891C25.6307 0.324405 25.635 0.30426 25.5206 0.036615C25.6221 0.0625161 25.7007 0.0884172 25.7807 0.0984899C25.8136 0.102807 25.8565 0.0797835 25.885 0.0567603C25.9994 -0.0353326 26.0923 0.000641186 26.1909 0.0884172C26.228 0.121513 26.3009 0.140219 26.3509 0.130147C26.5081 0.0999288 26.661 0.0495655 26.8168 0.0135917C27.004 -0.0295768 27.0954 0.0279813 27.0926 0.216484C27.0926 0.340234 27.0383 0.463984 27.0026 0.586295C26.9811 0.66112 26.9454 0.733068 26.9211 0.806454C26.8711 0.960422 26.8268 1.11583 26.7725 1.26692C26.7639 1.29138 26.711 1.30001 26.6925 1.31009C26.7125 1.35326 26.7582 1.41513 26.7453 1.4324C26.7167 1.47125 26.6596 1.48852 26.5924 1.52449C26.5538 1.62234 26.5781 1.79357 26.3623 1.80796C26.3152 1.81084 26.2795 1.9792 26.2394 2.07129C26.2094 2.14324 26.2437 2.28426 26.0851 2.21519C26.0737 2.24541 25.9251 2.22238 26.048 2.3116C26.0551 2.31735 26.0351 2.37923 26.0151 2.40369C25.8922 2.5591 25.765 2.71163 25.6007 2.9102C25.6107 2.8066 25.6135 2.76775 25.6235 2.66846C25.4692 2.87854 25.3449 3.0469 25.2205 3.21526C25.2105 3.19799 25.2005 3.18216 25.1891 3.1649C24.9719 3.27857 24.7561 3.39081 24.5689 3.48866C24.4703 3.37354 24.3988 3.29296 24.2959 3.17353C24.0502 3.20375 24.2073 3.02676 24.2402 2.90445C24.2659 2.92171 24.2931 2.93754 24.3603 2.98071C24.2488 2.80228 24.2859 2.69868 24.4617 2.64256C24.356 2.53895 24.2988 2.37923 24.0844 2.51593C24.0602 2.30584 24.0359 2.10295 24.0116 1.90006C23.9958 1.89574 23.9801 1.89286 23.963 1.88855C23.9401 1.96337 23.9187 2.0382 23.9072 2.07417C23.7772 2.05259 23.6643 2.03388 23.5514 2.01517C23.5428 2.03532 23.5343 2.05403 23.5271 2.07417C23.5214 2.05259 23.5085 2.03244 23.51 2.01086C23.5157 1.86696 23.2442 1.88711 23.3285 1.69717C23.3799 1.57917 23.4299 1.45974 23.4843 1.33167C23.6214 1.3475 23.7343 1.25685 23.7358 1.10432C23.6815 1.12015 23.6272 1.13597 23.5729 1.1518C23.4471 1.18634 23.2928 1.15756 23.2442 1.34606C23.237 1.37484 23.047 1.40506 23.0055 1.36621C22.9369 1.30145 22.8926 1.18202 22.8898 1.08273C22.8841 0.882719 22.9141 0.682704 23.1284 0.573344C23.1584 0.616512 23.1884 0.659681 23.2156 0.699972C23.4685 0.49708 23.7286 0.393475 24.0373 0.521542C23.9773 0.699972 24.0144 0.828038 24.2531 0.848184C24.1802 0.740262 24.1073 0.63378 24.0344 0.525859L24.0373 0.530175ZM23.8801 0.970495C23.6815 1.08417 23.8572 1.2036 23.8887 1.34462C23.9944 1.24677 24.0916 1.15612 24.1902 1.06547C24.1802 1.04388 24.1702 1.0223 24.1602 1.00215C24.1059 1.02374 24.0516 1.04532 23.9844 1.07122C23.9601 1.0482 23.9173 1.00791 23.8787 0.970495H23.8801Z" fill="black"/>
</svg>
